<?xml version="1.0" standalone="no"?>
<!DOCTYPE svg PUBLIC "-//W3C//DTD SVG 20010904//EN"
 "http://www.w3.org/TR/2001/REC-SVG-20010904/DTD/svg10.dtd">
<svg version="1.0" xmlns="http://www.w3.org/2000/svg"
 width="261.000000pt" height="261.000000pt" viewBox="0 0 261.000000 261.000000"
 preserveAspectRatio="xMidYMid meet">
<metadata>
Created by potrace 1.11, written by Peter Selinger 2001-2013
</metadata>
<g transform="translate(0.000000,261.000000) scale(0.100000,-0.100000)"
fill="#000000" stroke="none">
<path d="M1270 2599 c-74 -9 -97 -19 -326 -152 -110 -63 -215 -124 -234 -135
-19 -10 -75 -43 -125 -72 -49 -29 -110 -64 -135 -78 -207 -117 -245 -148 -289
-242 l-26 -55 0 -565 0 -565 27 -55 c42 -88 80 -120 253 -220 17 -9 134 -77
260 -150 127 -73 246 -141 265 -152 19 -11 71 -41 115 -67 128 -74 161 -86
240 -89 83 -3 132 17 384 163 133 77 259 149 279 161 195 108 383 222 410 248
46 42 83 108 97 170 13 59 14 1058 1 1116 -13 55 -51 123 -91 162 -20 19 -188
122 -372 229 -185 107 -357 206 -382 221 -150 87 -209 116 -250 123 -19 3 -37
7 -40 9 -3 1 -31 -1 -61 -5z"/>
</g>
</svg>
